 <svg
                        width="124"
                        height="31"
                        viewBox="0 0 124 31"
                        fill="none"
                        xmlns="http://www.w3.org/2000/svg"
                        preserveAspectRatio="none"
                    >
                        <path
                            fill-rule="evenodd"
                            clip-rule="evenodd"
                            d="M92.2067 30.11C90.6944 29.897 89.8404 29.1726 90.2308 28.4338C90.3413 28.2245 94.3739 26.2451 102.303 22.5081L114.209 16.8967L58.0793 16.8672L1.95007 16.8378L1.26576 16.5995C0.889441 16.4685 0.422979 16.1502 0.229125 15.892C-0.0868577 15.4712 -0.081769 15.3816 0.280254 15.0247C0.502217 14.8058 0.982975 14.5345 1.34888 14.4218C1.98399 14.2261 4.5717 14.2154 58.1138 14.1873L114.213 14.1578L102.423 8.60342C95.9379 5.54844 90.5165 2.90451 90.3752 2.7281C89.782 1.98783 90.3868 1.29611 91.8863 0.999592C93.5794 0.664785 93.2496 0.530996 109.052 7.97061C118.979 12.6441 123.824 15.0025 123.933 15.2139C124.022 15.3862 124.022 15.6683 123.933 15.8406C123.824 16.0516 119.004 18.4021 109.186 23.0316C96.7281 28.9062 93.5743 30.3042 92.9731 30.218C92.9356 30.2126 92.5907 30.164 92.2067 30.11Z"
                            fill="#00499F"
                        />
                    </svg>