<svg width="80" height="80" viewBox="0 0 80 80" fill="none" xmlns="http://www.w3.org/2000/svg">
<g clip-path="url(#clip0_1247_695)">
<path d="M52.9109 80.0004H27.0922C26.3934 79.9469 25.6931 79.9092 24.9959 79.837C22.5148 79.5793 19.9804 79.5463 17.5621 79.0043C8.55652 76.9839 3.00711 71.3847 0.956313 62.3636C0.087943 58.5475 0.0785212 54.6513 0.0455451 50.7739C-0.0156962 43.5769 -0.0172665 36.3767 0.0455451 29.1797C0.0800915 25.2489 0.0942241 21.2992 0.975157 17.436C2.88463 9.06538 7.90328 3.56509 16.1866 1.15666C19.3366 0.240729 22.5886 0.00506931 25.8501 0.00349825C35.9644 0.00192719 46.0786 -0.0232098 56.1913 0.0883356C58.5122 0.113473 60.8739 0.460677 63.1382 0.990125C70.2297 2.65231 75.2813 6.8439 78.0356 13.6482C79.5745 17.4501 79.9686 21.4626 79.9749 25.5207C79.9906 34.7271 80.0283 43.9335 79.9513 53.1399C79.9278 55.9176 79.7158 58.7156 79.3091 61.4618C78.7202 65.4445 77.1201 69.0438 74.4663 72.1246C70.1653 77.1159 64.5154 79.1975 58.1306 79.6752C56.3923 79.8055 54.6508 79.8904 52.9094 79.9972L52.9109 80.0004ZM40.0628 72.9054L40.066 72.7641C42.96 72.7641 45.8556 72.8222 48.7497 72.7499C52.757 72.6494 56.7895 72.8159 60.7482 72.0178C66.4657 70.8646 70.2438 67.5371 71.8565 61.864C72.5992 59.2561 72.7343 56.5664 72.761 53.8893C72.8395 45.7779 72.852 37.665 72.8285 29.5536C72.8191 26.1428 72.8348 22.7148 72.158 19.348C70.9803 13.4973 67.6057 9.65767 61.7501 8.13688C58.4101 7.26966 54.9821 7.27437 51.5778 7.23195C44.9543 7.15183 38.3308 7.18325 31.7073 7.20053C27.747 7.21153 23.7726 7.14083 19.8563 7.84152C13.8405 8.91927 9.8473 12.2939 8.26444 18.3236C7.50913 21.2034 7.42277 24.1554 7.39921 27.0902C7.33169 35.6713 7.32855 44.254 7.40392 52.8367C7.42591 55.3803 7.63633 57.9458 8.03518 60.4579C8.68685 64.5537 10.7062 67.8828 14.3022 70.1011C16.9167 71.713 19.8516 72.3493 22.8634 72.464C28.5934 72.6824 34.3297 72.7656 40.0644 72.9039L40.0628 72.9054Z" fill="black"/>
<path d="M40.0406 19.3097C51.3593 19.2673 60.6993 28.5994 60.6899 39.9409C60.6821 51.2635 51.4189 60.5406 40.1034 60.5595C28.791 60.5783 19.5091 51.3405 19.451 40.0053C19.3929 28.6764 28.6686 19.3521 40.039 19.3097H40.0406ZM26.7607 39.9205C26.7544 47.3092 32.6665 53.2431 40.0406 53.2493C47.432 53.2556 53.3787 47.3469 53.3912 39.9849C53.4038 32.5962 47.4901 26.6261 40.1427 26.6104C32.7121 26.5947 26.7669 32.5082 26.7607 39.9205Z" fill="black"/>
<path d="M61.4532 23.3352C58.7665 23.3352 56.6639 21.2205 56.667 18.5215C56.6686 15.8491 58.8293 13.6889 61.4799 13.7062C64.1369 13.7234 66.3023 15.9009 66.2944 18.5466C66.285 21.2111 64.1369 23.3368 61.4548 23.3352H61.4532Z" fill="black"/>
</g>
<defs>
<clipPath id="clip0_1247_695">
<rect width="80" height="80" fill="white"/>
</clipPath>
</defs>
</svg>
