<svg width="88" height="88" viewBox="0 0 88 88" fill="none" xmlns="http://www.w3.org/2000/svg">
<g clipPath="url(#clip0_422_291)" filter="url(#filter0_d_422_291)">
<path d="M56.9112 80.0004H31.0925C30.3937 79.9469 29.6933 79.9092 28.9961 79.837C26.5151 79.5793 23.9806 79.5463 21.5624 79.0043C12.5568 76.9839 7.00736 71.3847 4.95656 62.3636C4.08819 58.5475 4.07877 54.6513 4.04579 50.7739C3.98455 43.5769 3.98298 36.3767 4.04579 29.1797C4.08034 25.2489 4.09447 21.2992 4.9754 17.436C6.88487 9.06538 11.9035 3.56509 20.1868 1.15666C23.3368 0.240729 26.5889 0.00506931 29.8504 0.00349825C39.9646 0.00192719 50.0788 -0.0232098 60.1915 0.0883356C62.5124 0.113473 64.8741 0.460677 67.1385 0.990125C74.2299 2.65231 79.2815 6.8439 82.0358 13.6482C83.5747 17.4501 83.9688 21.4626 83.9751 25.5207C83.9908 34.7271 84.0285 43.9335 83.9516 53.1399C83.928 55.9176 83.716 58.7156 83.3093 61.4618C82.7205 65.4445 81.1203 69.0438 78.4665 72.1246C74.1655 77.1159 68.5156 79.1975 62.1308 79.6752C60.3925 79.8055 58.6511 79.8904 56.9096 79.9972L56.9112 80.0004ZM44.0631 72.9054L44.0662 72.7641C46.9602 72.7641 49.8559 72.8222 52.7499 72.7499C56.7573 72.6494 60.7898 72.8159 64.7485 72.0178C70.4659 70.8646 74.244 67.5371 75.8567 61.864C76.5995 59.2561 76.7345 56.5664 76.7612 53.8893C76.8397 45.7779 76.8523 37.665 76.8287 29.5536C76.8193 26.1428 76.835 22.7148 76.1582 19.348C74.9805 13.4973 71.6059 9.65767 65.7503 8.13688C62.4103 7.26966 58.9824 7.27437 55.578 7.23195C48.9545 7.15183 42.331 7.18325 35.7075 7.20053C31.7473 7.21153 27.7729 7.14083 23.8566 7.84152C17.8408 8.91927 13.8475 12.2939 12.2647 18.3236C11.5094 21.2034 11.423 24.1554 11.3995 27.0902C11.3319 35.6713 11.3288 44.254 11.4042 52.8367C11.4262 55.3803 11.6366 57.9458 12.0354 60.4579C12.6871 64.5537 14.7065 67.8828 18.3025 70.1011C20.917 71.713 23.8519 72.3493 26.8637 72.464C32.5937 72.6824 38.3299 72.7656 44.0646 72.9039L44.0631 72.9054Z" fill="black"/>
<path d="M44.0408 19.3097C55.3595 19.2673 64.6996 28.5994 64.6902 39.9409C64.6823 51.2635 55.4192 60.5406 44.1037 60.5595C32.7913 60.5783 23.5093 51.3405 23.4512 40.0053C23.3931 28.6764 32.6688 19.3521 44.0393 19.3097H44.0408ZM30.7609 39.9205C30.7546 47.3092 36.6668 53.2431 44.0408 53.2493C51.4322 53.2556 57.3789 47.3469 57.3915 39.9849C57.404 32.5962 51.4903 26.6261 44.1429 26.6104C36.7123 26.5947 30.7672 32.5082 30.7609 39.9205Z" fill="black"/>
<path d="M65.4532 23.3352C62.7665 23.3352 60.6639 21.2205 60.667 18.5215C60.6686 15.8491 62.8293 13.6889 65.4799 13.7062C68.1369 13.7234 70.3023 15.9009 70.2944 18.5466C70.285 21.2111 68.1369 23.3368 65.4548 23.3352H65.4532Z" fill="black"/>
</g>
<defs>
<filter id="filter0_d_422_291" x="0" y="0" width="88" height="88" filterUnits="userSpaceOnUse" color-interpolation-filters="sRGB">
<feFlood flood-opacity="0" result="BackgroundImageFix"/>
<feColorMatrix in="SourceAlpha" type="matrix" values="0 0 0 0 0 0 0 0 0 0 0 0 0 0 0 0 0 0 127 0" result="hardAlpha"/>
<feOffset dy="4"/>
<feGaussianBlur stdDeviation="2"/>
<feComposite in2="hardAlpha" operator="out"/>
<feColorMatrix type="matrix" values="0 0 0 0 0 0 0 0 0 0 0 0 0 0 0 0 0 0 0.25 0"/>
<feBlend mode="normal" in2="BackgroundImageFix" result="effect1_dropShadow_422_291"/>
<feBlend mode="normal" in="SourceGraphic" in2="effect1_dropShadow_422_291" result="shape"/>
</filter>
<clipPath id="clip0_422_291">
<rect width="80" height="80" fill="white" transform="translate(4)"/>
</clipPath>
</defs>
</svg>
