<svg width="50" height="50" viewBox="0 0 50 50" fill="none" xmlns="http://www.w3.org/2000/svg">
<g clip-path="url(#clip0_422_260)">
<path d="M33.0693 50.0002H16.9326C16.4959 49.9668 16.0582 49.9433 15.6224 49.8981C14.0718 49.7371 12.4877 49.7164 10.9763 49.3777C5.34782 48.1149 1.87945 44.6154 0.597696 38.9773C0.0549644 36.5922 0.0490758 34.1571 0.0284657 31.7337C-0.0098101 27.2355 -0.0107915 22.7354 0.0284657 18.2373C0.0500572 15.7805 0.0588901 13.312 0.609473 10.8975C1.80289 5.66586 4.93955 2.22818 10.1166 0.722911C12.0854 0.150455 14.1179 0.00316832 16.1563 0.00218641C22.4777 0.00120449 28.7991 -0.0145061 35.1195 0.0552097C36.5701 0.0709203 38.0462 0.287923 39.4614 0.618828C43.8935 1.65769 47.0508 4.27744 48.7722 8.5301C49.734 10.9063 49.9804 13.4141 49.9843 15.9504C49.9941 21.7044 50.0177 27.4584 49.9696 33.2125C49.9549 34.9485 49.8224 36.6973 49.5682 38.4136C49.2001 40.9028 48.2001 43.1524 46.5414 45.0779C43.8533 48.1974 40.3221 49.4985 36.3316 49.797C35.2452 49.8785 34.1568 49.9315 33.0684 49.9983L33.0693 50.0002ZM25.0393 45.5659L25.0412 45.4775C26.85 45.4775 28.6598 45.5139 30.4685 45.4687C32.9732 45.4058 35.4935 45.5099 37.9677 45.0111C41.541 44.2904 43.9024 42.2107 44.9103 38.665C45.3745 37.035 45.4589 35.354 45.4756 33.6808C45.5247 28.6112 45.5325 23.5406 45.5178 18.471C45.5119 16.3393 45.5217 14.1967 45.0987 12.0925C44.3627 8.43584 42.2536 6.03604 38.5938 5.08555C36.5063 4.54353 34.3638 4.54648 32.2361 4.51997C28.0964 4.46989 23.9567 4.48953 19.8171 4.50033C17.3419 4.5072 14.8579 4.46302 12.4102 4.90095C8.65034 5.57454 6.15456 7.68369 5.16528 11.4523C4.69321 13.2521 4.63923 15.0971 4.62451 16.9314C4.58231 22.2946 4.58034 27.6588 4.62745 33.0229C4.64119 34.6127 4.7727 36.2161 5.02199 37.7862C5.42928 40.3461 6.6914 42.4267 8.93888 43.8132C10.573 44.8206 12.4073 45.2183 14.2896 45.29C17.8709 45.4265 21.4561 45.4785 25.0402 45.5649L25.0393 45.5659Z" fill="white"/>
<path d="M25.0255 12.0689C32.0997 12.0424 37.9372 17.875 37.9313 24.9634C37.9264 32.0401 32.137 37.8383 25.0648 37.85C17.9946 37.8618 12.1933 32.0882 12.157 25.0037C12.1207 17.9231 17.918 12.0954 25.0245 12.0689H25.0255ZM16.7256 24.9507C16.7216 29.5686 20.4167 33.2773 25.0255 33.2812C29.6451 33.2851 33.3618 29.5922 33.3697 24.9909C33.3775 20.373 29.6814 16.6417 25.0893 16.6319C20.4452 16.6221 16.7295 20.318 16.7256 24.9507Z" fill="white"/>
<path d="M38.4083 14.5841C36.7291 14.5841 35.4149 13.2625 35.4169 11.5755C35.4179 9.90531 36.7683 8.55518 38.425 8.56598C40.0856 8.57678 41.439 9.93772 41.4341 11.5913C41.4282 13.2566 40.0856 14.5851 38.4093 14.5841H38.4083Z" fill="white"/>
</g>
<defs>
<clipPath id="clip0_422_260">
<rect width="50" height="50" fill="white"/>
</clipPath>
</defs>
</svg>
