<svg width="42" height="59" viewBox="0 0 42 59" fill="none" xmlns="http://www.w3.org/2000/svg">
<path fill-rule="evenodd" clip-rule="evenodd" d="M41.715 20.8575C41.715 22.8045 41.4482 24.6891 40.9493 26.4769C40.968 26.6764 40.9265 26.8861 40.8104 27.0804L40.7266 27.2204C39.7432 30.2938 38.0665 33.0571 35.8805 35.3263L22.4304 57.8235C22.0495 58.4606 21.1317 58.4753 20.7306 57.8507L6.96719 36.4172C4.15182 33.9021 2.02327 30.6343 0.897735 26.9298C0.876589 26.8764 0.860516 26.8222 0.849243 26.7679C0.296585 24.894 0 22.9104 0 20.8575C0 9.33822 9.33822 0 20.8575 0C32.3768 0 41.715 9.33822 41.715 20.8575ZM20.8575 30.9498C27.1745 30.9498 32.2955 25.8289 32.2955 19.5119C32.2955 13.1948 27.1745 8.07387 20.8575 8.07387C14.5405 8.07387 9.41952 13.1948 9.41952 19.5119C9.41952 25.8289 14.5405 30.9498 20.8575 30.9498Z" fill="white"/>
</svg>
