<svg width="291" height="315" viewBox="0 0 291 315" fill="none" xmlns="http://www.w3.org/2000/svg">
<path d="M15.3743 15.8407V18.3269H1.1145V15.8407H15.3743ZM9.57324 9.76817V24.9139H6.92988V9.76817H9.57324Z" fill="#FF7152"/>
<path d="M15.3743 82.3271V84.8133H1.1145V82.3271H15.3743ZM9.57324 76.2545V91.4002H6.92988V76.2545H9.57324Z" fill="#E5E5E5"/>
<path d="M15.3743 148.81V151.297H1.1145V148.81H15.3743ZM9.57324 142.738V157.884H6.92988V142.738H9.57324Z" fill="#E5E5E5"/>
<path d="M81.8595 15.8407V18.3269H67.5997V15.8407H81.8595ZM76.0584 9.76817V24.9139H73.4151V9.76817H76.0584Z" fill="#E5E5E5"/>
<path d="M81.8595 82.3271V84.8133H67.5997V82.3271H81.8595ZM76.0584 76.2545V91.4002H73.4151V76.2545H76.0584Z" fill="#E5E5E5"/>
<path d="M81.8595 148.81V151.297H67.5997V148.81H81.8595ZM76.0584 142.738V157.884H73.4151V142.738H76.0584Z" fill="#E5E5E5"/>
<path d="M81.8595 215.295V217.781H67.5997V215.295H81.8595ZM76.0584 209.222V224.368H73.4151V209.222H76.0584Z" fill="#E5E5E5"/>
<path d="M148.344 15.8407V18.3269H134.085V15.8407H148.344ZM142.543 9.76817V24.9139H139.9V9.76817H142.543Z" fill="#E5E5E5"/>
<path d="M148.344 82.3271V84.8133H134.085V82.3271H148.344ZM142.543 76.2545V91.4002H139.9V76.2545H142.543Z" fill="#E5E5E5"/>
<path d="M148.344 148.81V151.297H134.085V148.81H148.344ZM142.543 142.738V157.884H139.9V142.738H142.543Z" fill="#6246E5"/>
<path d="M148.344 215.295V217.781H134.085V215.295H148.344ZM142.543 209.222V224.368H139.9V209.222H142.543Z" fill="#E5E5E5"/>
<path d="M148.344 281.78V284.266H134.085V281.78H148.344ZM142.543 275.707V290.853H139.9V275.707H142.543Z" fill="#E5E5E5"/>
<path d="M214.829 15.8407V18.3269H200.569V15.8407H214.829ZM209.028 9.76817V24.9139H206.384V9.76817H209.028Z" fill="#E5E5E5"/>
<path d="M214.829 82.3271V84.8133H200.569V82.3271H214.829ZM209.028 76.2545V91.4002H206.384V76.2545H209.028Z" fill="#E5E5E5"/>
<path d="M214.829 148.81V151.297H200.569V148.81H214.829ZM209.028 142.738V157.884H206.384V142.738H209.028Z" fill="#E5E5E5"/>
<path d="M214.829 215.295V217.781H200.569V215.295H214.829ZM209.028 209.222V224.368H206.384V209.222H209.028Z" fill="#E5E5E5"/>
<path d="M214.829 281.78V284.266H200.569V281.78H214.829ZM209.028 275.707V290.853H206.384V275.707H209.028Z" fill="#E5E5E5"/>
<path d="M281.314 15.8407V18.3269H267.054V15.8407H281.314ZM275.513 9.76817V24.9139H272.869V9.76817H275.513Z" fill="#E5E5E5"/>
<path d="M281.314 82.3271V84.8133H267.054V82.3271H281.314ZM275.513 76.2545V91.4002H272.869V76.2545H275.513Z" fill="#E5E5E5"/>
<path d="M281.314 148.81V151.297H267.054V148.81H281.314ZM275.513 142.738V157.884H272.869V142.738H275.513Z" fill="#E5E5E5"/>
<path d="M281.314 215.295V217.781H267.054V215.295H281.314ZM275.513 209.222V224.368H272.869V209.222H275.513Z" fill="#E5E5E5"/>
<path d="M281.314 281.78V284.266H267.054V281.78H281.314ZM275.513 275.707V290.853H272.869V275.707H275.513Z" fill="#E5E5E5"/>
</svg>
