<svg width="88" height="88" viewBox="0 0 88 88" fill="none" xmlns="http://www.w3.org/2000/svg">
<g clip-path="url(#clip0_422_288)" filter="url(#filter0_d_422_288)">
<path d="M46.8719 62.3696C43.5321 66.2953 40.2734 70.1525 36.9789 73.9696C36.6235 74.381 36.0844 74.7468 35.6096 74.7896C34.789 74.8639 34.2141 73.901 34.2809 72.7982C34.6697 66.261 35.0562 59.7239 35.476 53.1896C35.5023 52.7925 35.7432 52.3296 36.0009 52.0468C44.7702 42.3496 53.5539 32.6696 62.3375 22.9868C64.2865 20.8382 66.2403 18.6925 68.1822 16.5382C68.5161 16.1668 69.0768 15.741 68.6068 15.1725C68.4255 14.9525 67.7194 15.1125 67.383 15.3582C53.3225 25.6182 39.2715 35.8982 25.2348 46.2068C24.481 46.761 23.8655 46.8496 23.0186 46.4982C17.4435 44.1725 11.8446 41.9239 6.25283 39.6496C4.7213 39.0239 4.03903 38.1125 4.00086 36.6268C3.96269 35.0153 4.57101 34.0639 6.10493 33.361C24.8984 24.7439 43.6919 16.1239 62.4854 7.50676C67.6693 5.12961 72.8459 2.73533 78.0369 0.386755C80.673 -0.804674 83.3639 0.843898 83.915 4.04104C84.082 5.00961 83.9746 6.10676 83.7957 7.09533C79.5923 30.0725 75.3627 53.041 71.1379 76.0125C70.6178 78.8382 69.3344 80.2353 67.2494 79.9668C66.5314 79.8753 65.768 79.421 65.1763 78.8896C59.3174 73.6382 53.4895 68.3325 47.652 63.0439C47.4182 62.8325 47.1772 62.6296 46.8695 62.3639L46.8719 62.3696Z" fill="black"/>
</g>
<defs>
<filter id="filter0_d_422_288" x="0" y="0" width="88" height="88" filterUnits="userSpaceOnUse" color-interpolation-filters="sRGB">
<feFlood flood-opacity="0" result="BackgroundImageFix"/>
<feColorMatrix in="SourceAlpha" type="matrix" values="0 0 0 0 0 0 0 0 0 0 0 0 0 0 0 0 0 0 127 0" result="hardAlpha"/>
<feOffset dy="4"/>
<feGaussianBlur stdDeviation="2"/>
<feComposite in2="hardAlpha" operator="out"/>
<feColorMatrix type="matrix" values="0 0 0 0 0 0 0 0 0 0 0 0 0 0 0 0 0 0 0.25 0"/>
<feBlend mode="normal" in2="BackgroundImageFix" result="effect1_dropShadow_422_288"/>
<feBlend mode="normal" in="SourceGraphic" in2="effect1_dropShadow_422_288" result="shape"/>
</filter>
<clipPath id="clip0_422_288">
<rect width="80" height="80" fill="white" transform="translate(4)"/>
</clipPath>
</defs>
</svg>
