<svg width="80" height="80" viewBox="0 0 80 80" fill="none" xmlns="http://www.w3.org/2000/svg">
<g clip-path="url(#clip0_1247_692)">
<path d="M42.8717 62.3696C39.5319 66.2953 36.2733 70.1525 32.9788 73.9696C32.6233 74.381 32.0842 74.7468 31.6095 74.7896C30.7888 74.8639 30.2139 73.901 30.2807 72.7982C30.6696 66.261 31.056 59.7239 31.4759 53.1896C31.5021 52.7925 31.7431 52.3296 32.0007 52.0468C40.7701 42.3496 49.5537 32.6696 58.3374 22.9868C60.2864 20.8382 62.2402 18.6925 64.182 16.5382C64.516 16.1668 65.0766 15.741 64.6066 15.1725C64.4253 14.9525 63.7192 15.1125 63.3828 15.3582C49.3223 25.6182 35.2713 35.8982 21.2346 46.2068C20.4808 46.761 19.8653 46.8496 19.0185 46.4982C13.4434 44.1725 7.84445 41.9239 2.25268 39.6496C0.721148 39.0239 0.0388755 38.1125 0.000706469 36.6268C-0.0374626 35.0153 0.570857 34.0639 2.10478 33.361C20.8983 24.7439 39.6918 16.1239 58.4853 7.50676C63.6691 5.12961 68.8458 2.73533 74.0368 0.386755C76.6728 -0.804674 79.3638 0.843898 79.9148 4.04104C80.0818 5.00961 79.9745 6.10676 79.7955 7.09533C75.5922 30.0725 71.3626 53.041 67.1377 76.0125C66.6177 78.8382 65.3342 80.2353 63.2493 79.9668C62.5312 79.8753 61.7678 79.421 61.1762 78.8896C55.3172 73.6382 49.4893 68.3325 43.6518 63.0439C43.418 62.8325 43.1771 62.6296 42.8694 62.3639L42.8717 62.3696Z" fill="black"/>
</g>
<defs>
<clipPath id="clip0_1247_692">
<rect width="80" height="80" fill="white"/>
</clipPath>
</defs>
</svg>
