<svg width="50" height="50" viewBox="0 0 50 50" fill="none" xmlns="http://www.w3.org/2000/svg">
<g clip-path="url(#clip0_422_267)">
<path d="M26.7944 38.9802C24.707 41.4337 22.6703 43.8444 20.6113 46.2302C20.3891 46.4873 20.0522 46.7159 19.7555 46.7426C19.2426 46.7891 18.8833 46.1873 18.925 45.498C19.168 41.4123 19.4096 37.3266 19.672 33.2427C19.6884 32.9944 19.839 32.7052 20 32.5284C25.4808 26.4677 30.9706 20.4177 36.4604 14.3659C37.6785 13.023 38.8997 11.6819 40.1133 10.3355C40.3221 10.1034 40.6724 9.8373 40.3787 9.48194C40.2654 9.34444 39.8241 9.44444 39.6138 9.59801C30.826 16.0105 22.0441 22.4355 13.2712 28.8784C12.8001 29.2248 12.4154 29.2802 11.8861 29.0605C8.40167 27.6069 4.90234 26.2016 1.40748 24.7802C0.450275 24.3891 0.0238547 23.8194 -9.6194e-07 22.8909C-0.0238566 21.8837 0.356343 21.2891 1.31504 20.8498C13.061 15.4641 24.8069 10.0766 36.5529 4.69087C39.7928 3.20515 43.0282 1.70872 46.2726 0.240867C47.9201 -0.503775 49.6019 0.526582 49.9463 2.5248C50.0507 3.13015 49.9836 3.81587 49.8718 4.43372C47.2447 18.7944 44.6012 33.1498 41.9606 47.5069C41.6356 49.273 40.8335 50.1462 39.5303 49.9784C39.0816 49.9212 38.6044 49.6373 38.2347 49.3051C34.5728 46.023 30.9304 42.7069 27.2819 39.4016C27.1358 39.2694 26.9852 39.1427 26.7929 38.9766L26.7944 38.9802Z" fill="#FBFBFB"/>
</g>
<defs>
<clipPath id="clip0_422_267">
<rect width="50" height="50" fill="white"/>
</clipPath>
</defs>
</svg>
