<svg width="88" height="88" viewBox="0 0 88 88" fill="none" xmlns="http://www.w3.org/2000/svg">
<g clip-path="url(#clip0_422_285)" filter="url(#filter0_d_422_285)">
<path d="M4 79.9994C4.63708 77.6774 5.23639 75.4945 5.83444 73.3128C7.04186 68.9093 8.26188 64.5097 9.43909 60.0987C9.53856 59.7253 9.47687 59.2128 9.29053 58.8732C5.46553 51.9209 3.74441 44.4674 4.46963 36.6041C5.71986 23.0517 12.2833 12.642 23.9597 5.54692C31.0129 1.25877 38.7775 -0.524413 46.994 0.130966C60.0101 1.16854 70.2147 7.21106 77.4869 17.9753C82.5596 25.484 84.5414 33.8848 83.8754 42.8797C82.6113 59.9634 69.7589 74.6624 52.904 78.3566C43.3994 80.4392 34.3192 79.2049 25.6582 74.8027C25.3522 74.6473 24.9065 74.5985 24.5741 74.6837C18.0359 76.3654 11.5039 78.0734 4.97073 79.7751C4.70507 79.844 4.43437 79.8991 4.00126 79.9981L4 79.9994ZM13.6179 70.5234C13.8155 70.4807 13.9163 70.4632 14.0145 70.4369C17.7262 69.4745 21.4441 68.5309 25.1457 67.5309C25.8584 67.3379 26.3985 67.4482 27.0142 67.8166C33.5423 71.7251 40.6195 73.2414 48.1687 72.3479C54.8757 71.5547 60.7718 68.8617 65.8949 64.4696C76.1675 55.6614 79.9874 40.8409 75.203 28.2659C69.2704 12.6709 53.3346 4.02063 36.9632 7.56193C22.9323 10.597 11.82 22.8361 11.1199 38.2632C10.8379 44.4949 12.2745 50.3595 15.3377 55.8168C15.8615 56.7504 16.695 57.6526 16.8071 58.6351C16.9216 59.6288 16.316 60.704 16.0302 61.744C15.2332 64.6425 14.4363 67.5409 13.6166 70.5234H13.6179Z" fill="black"/>
<path d="M23.8464 30.7218C23.9093 27.4449 25.191 24.7407 27.5077 22.4776C28.2845 21.7182 29.1948 21.321 30.2852 21.3448C30.8706 21.3573 31.4598 21.4275 32.0403 21.3798C33.0362 21.2984 33.6468 21.7996 34.0019 22.6242C35.1728 25.3472 36.3437 28.0715 37.4189 30.8333C37.5952 31.2857 37.4454 32.0238 37.1722 32.4599C36.4658 33.5852 35.6462 34.6466 34.7963 35.6716C34.1983 36.3921 34.1089 37.0112 34.6087 37.8382C37.8495 43.2016 42.3204 47.1175 48.1888 49.422C49.1256 49.7904 49.6254 49.6952 50.2537 48.9358C51.2634 47.7153 52.2757 46.4947 53.2364 45.2366C53.7652 44.5436 54.3922 44.2379 55.1854 44.6076C58.0573 45.9459 60.9191 47.3043 63.757 48.7102C64.0478 48.8544 64.311 49.3594 64.3235 49.7065C64.4343 52.6563 63.5593 55.1174 60.9203 56.8292C57.6342 58.9607 54.1857 59.1374 50.5193 58.1111C41.1155 55.4796 34.1391 49.6213 28.5326 41.8958C26.6792 39.342 24.9921 36.7092 24.2745 33.5902C24.0579 32.6503 23.9849 31.6779 23.8464 30.7206V30.7218Z" fill="black"/>
</g>
<defs>
<filter id="filter0_d_422_285" x="0" y="0" width="88" height="88" filterUnits="userSpaceOnUse" color-interpolation-filters="sRGB">
<feFlood flood-opacity="0" result="BackgroundImageFix"/>
<feColorMatrix in="SourceAlpha" type="matrix" values="0 0 0 0 0 0 0 0 0 0 0 0 0 0 0 0 0 0 127 0" result="hardAlpha"/>
<feOffset dy="4"/>
<feGaussianBlur stdDeviation="2"/>
<feComposite in2="hardAlpha" operator="out"/>
<feColorMatrix type="matrix" values="0 0 0 0 0 0 0 0 0 0 0 0 0 0 0 0 0 0 0.25 0"/>
<feBlend mode="normal" in2="BackgroundImageFix" result="effect1_dropShadow_422_285"/>
<feBlend mode="normal" in="SourceGraphic" in2="effect1_dropShadow_422_285" result="shape"/>
</filter>
<clipPath id="clip0_422_285">
<rect width="80" height="80" fill="white" transform="translate(4)"/>
</clipPath>
</defs>
</svg>
