<svg width="50" height="50" viewBox="0 0 50 50" fill="none" xmlns="http://www.w3.org/2000/svg">
<g clip-path="url(#clip0_422_264)">
<path d="M0 50.0002C0.398174 48.549 0.772741 47.1846 1.14652 45.8211C1.90116 43.0689 2.66368 40.3191 3.39943 37.5623C3.4616 37.3289 3.42304 37.0086 3.30658 36.7963C0.915958 32.4512 -0.159742 27.7927 0.293516 22.8782C1.07491 14.4079 5.17705 7.90189 12.4748 3.46744C16.8831 0.78734 21.7359 -0.327148 26.8713 0.0824638C35.0063 0.73095 41.3842 4.50752 45.9293 11.2352C49.0998 15.9281 50.3384 21.1786 49.9221 26.8004C49.132 37.4777 41.0993 46.6646 30.565 48.9735C24.6246 50.2751 18.9495 49.5037 13.5364 46.7523C13.3451 46.6552 13.0666 46.6247 12.8588 46.6779C8.77243 47.729 4.68996 48.7965 0.606704 49.86C0.440667 49.9031 0.271482 49.9376 0.000786906 49.9995L0 50.0002ZM6.01117 44.0777C6.13472 44.0511 6.19767 44.0401 6.25905 44.0237C8.57885 43.4222 10.9026 42.8324 13.2161 42.2074C13.6615 42.0868 13.9991 42.1557 14.3839 42.386C18.464 44.8288 22.8872 45.7765 27.6054 45.218C31.7973 44.7223 35.4824 43.0392 38.6843 40.2941C45.1047 34.789 47.4921 25.5261 44.5019 17.6668C40.794 7.9199 30.8341 2.5135 20.602 4.72681C11.8327 6.62371 4.88747 14.2732 4.44995 23.9151C4.27369 27.8099 5.17155 31.4753 7.08609 34.8861C7.41344 35.4696 7.93437 36.0335 8.00441 36.6475C8.07601 37.2686 7.69751 37.9406 7.51889 38.5906C7.02077 40.4022 6.52266 42.2137 6.01039 44.0777H6.01117Z" fill="#F8F8F8"/>
<path d="M12.404 19.2006C12.4433 17.1526 13.2444 15.4624 14.6923 14.048C15.1778 13.5734 15.7468 13.3251 16.4282 13.34C16.7941 13.3478 17.1624 13.3917 17.5252 13.3619C18.1476 13.311 18.5293 13.6243 18.7512 14.1396C19.483 15.8415 20.2148 17.5442 20.8868 19.2703C20.997 19.5531 20.9034 20.0144 20.7326 20.2869C20.2911 20.9902 19.7789 21.6536 19.2477 22.2943C18.8739 22.7446 18.8181 23.1315 19.1305 23.6484C21.156 27.0005 23.9503 29.448 27.618 30.8883C28.2035 31.1185 28.5159 31.059 28.9086 30.5844C29.5397 29.8216 30.1723 29.0587 30.7727 28.2724C31.1032 27.8393 31.4951 27.6482 31.9909 27.8792C33.7858 28.7157 35.5744 29.5647 37.3481 30.4434C37.5299 30.5335 37.6944 30.8491 37.7022 31.0661C37.7715 32.9097 37.2246 34.4479 35.5752 35.5177C33.5214 36.85 31.3661 36.9604 29.0746 36.319C23.1972 34.6742 18.8369 31.0128 15.3329 26.1844C14.1745 24.5882 13.1201 22.9427 12.6715 20.9934C12.5362 20.406 12.4906 19.7982 12.404 19.1999V19.2006Z" fill="#F8F8F8"/>
</g>
<defs>
<clipPath id="clip0_422_264">
<rect width="50" height="50" fill="white"/>
</clipPath>
</defs>
</svg>
