<svg width="80" height="80" viewBox="0 0 80 80" fill="none" xmlns="http://www.w3.org/2000/svg">
<g clip-path="url(#clip0_1247_689)">
<path d="M0 79.9994C0.637079 77.6774 1.23639 75.4945 1.83444 73.3128C3.04186 68.9093 4.26188 64.5097 5.43909 60.0987C5.53856 59.7253 5.47687 59.2128 5.29053 58.8732C1.46553 51.9209 -0.255587 44.4674 0.469625 36.6041C1.71986 23.0517 8.28329 12.642 19.9597 5.54692C27.0129 1.25877 34.7775 -0.524413 42.994 0.130966C56.0101 1.16854 66.2147 7.21106 73.4869 17.9753C78.5596 25.484 80.5414 33.8848 79.8754 42.8797C78.6113 59.9634 65.7589 74.6624 48.904 78.3566C39.3994 80.4392 30.3192 79.2049 21.6582 74.8027C21.3522 74.6473 20.9065 74.5985 20.5741 74.6837C14.0359 76.3654 7.50393 78.0734 0.970727 79.7751C0.705068 79.844 0.434372 79.8991 0.00125905 79.9981L0 79.9994ZM9.61788 70.5234C9.81555 70.4807 9.91627 70.4632 10.0145 70.4369C13.7262 69.4745 17.4441 68.5309 21.1457 67.5309C21.8584 67.3379 22.3985 67.4482 23.0142 67.8166C29.5423 71.7251 36.6195 73.2414 44.1687 72.3479C50.8757 71.5547 56.7718 68.8617 61.8949 64.4696C72.1675 55.6614 75.9874 40.8409 71.203 28.2659C65.2704 12.6709 49.3346 4.02063 32.9632 7.56193C18.9323 10.597 7.81996 22.8361 7.11992 38.2632C6.8379 44.4949 8.27447 50.3595 11.3377 55.8168C11.8615 56.7504 12.695 57.6526 12.8071 58.6351C12.9216 59.6288 12.316 60.704 12.0302 61.744C11.2332 64.6425 10.4363 67.5409 9.61662 70.5234H9.61788Z" fill="black"/>
<path d="M19.8467 30.7218C19.9096 27.4449 21.1913 24.7407 23.508 22.4776C24.2848 21.7182 25.1951 21.321 26.2855 21.3448C26.8709 21.3573 27.4602 21.4275 28.0406 21.3798C29.0365 21.2984 29.6471 21.7996 30.0022 22.6242C31.1731 25.3472 32.344 28.0715 33.4192 30.8333C33.5955 31.2857 33.4457 32.0238 33.1725 32.4599C32.4661 33.5852 31.6465 34.6466 30.7966 35.6716C30.1986 36.3921 30.1092 37.0112 30.609 37.8382C33.8498 43.2016 38.3207 47.1175 44.1891 49.422C45.1259 49.7904 45.6257 49.6952 46.254 48.9358C47.2637 47.7153 48.276 46.4947 49.2367 45.2366C49.7655 44.5436 50.3925 44.2379 51.1857 44.6076C54.0576 45.9459 56.9194 47.3043 59.7573 48.7102C60.0481 48.8544 60.3113 49.3594 60.3238 49.7065C60.4346 52.6563 59.5596 55.1174 56.9206 56.8292C53.6345 58.9607 50.186 59.1374 46.5196 58.1111C37.1158 55.4796 30.1394 49.6213 24.5329 41.8958C22.6795 39.342 20.9924 36.7092 20.2748 33.5902C20.0582 32.6503 19.9852 31.6779 19.8467 30.7206V30.7218Z" fill="black"/>
</g>
<defs>
<clipPath id="clip0_1247_689">
<rect width="80" height="80" fill="white"/>
</clipPath>
</defs>
</svg>
